<svg width="214" height="92" viewBox="0 0 214 92" fill="none" xmlns="http://www.w3.org/2000/svg">
<g clip-path="url(#clip0_2_105)">
<path d="M118.868 40.6958H194.123C199.393 40.6958 204.447 38.5963 208.174 34.859C211.902 31.1217 213.997 26.0523 214 20.7655C214 15.4766 211.906 10.4044 208.178 6.66461C204.451 2.92483 199.395 0.823847 194.123 0.823847H118.868C113.596 0.823847 108.54 2.92483 104.813 6.66461C101.085 10.4044 98.9907 15.4766 98.9907 20.7655C98.9937 26.0523 101.089 31.1217 104.817 34.859C108.544 38.5963 113.598 40.6958 118.868 40.6958ZM19.8769 91.4809H106.381C111.651 91.4809 116.705 89.3814 120.432 85.6441C124.16 81.9068 126.255 76.8374 126.258 71.5505C126.258 66.2617 124.164 61.1895 120.436 57.4497C116.709 53.7099 111.653 51.6089 106.381 51.6089H19.8769C14.6052 51.6089 9.54945 53.7099 5.82181 57.4497C2.09417 61.1895 0 66.2617 0 71.5505C0.0029823 76.8374 2.09847 81.9068 5.82578 85.6441C9.5531 89.3814 14.6072 91.4809 19.8769 91.4809ZM11.7102 39.9735H20.4843V7.80962H31.8458V0H0.348717V7.78705H11.7102V39.9735ZM43.3197 39.9735H52.0939V9.3106H52.2064L62.3304 39.9509H69.0798L79.5413 9.3106H79.6538V39.9509H88.428V0H75.098L65.8738 26.0697H65.7614L56.5935 0H43.3197V39.9735ZM171.468 62.8268C170.294 60.3719 168.551 58.2355 166.383 56.5972C164.135 54.9474 161.58 53.7656 158.869 53.1212C155.9 52.377 152.851 51.9981 149.791 51.9926H136.63V91.9436H150.972C153.853 91.9575 156.719 91.5196 159.465 90.6457C162.058 89.8541 164.481 88.5833 166.608 86.8989C168.678 85.2137 170.355 83.0953 171.524 80.6919C172.787 78.0213 173.415 75.0929 173.358 72.1374C173.449 68.9294 172.803 65.7434 171.468 62.8268ZM163.11 77.419C162.452 78.925 161.431 80.2435 160.14 81.2561C158.798 82.2458 157.266 82.9452 155.64 83.3101C153.796 83.7364 151.909 83.9447 150.016 83.9308H145.46V60.2311H150.635C152.41 60.2223 154.178 60.4616 155.888 60.9421C157.461 61.3675 158.941 62.0832 160.253 63.0525C161.455 64.002 162.431 65.2088 163.11 66.5849C163.883 68.1717 164.268 69.9202 164.235 71.686C164.284 73.6567 163.9 75.6141 163.11 77.419ZM213.314 77.2723C212.916 76.1812 212.313 75.1772 211.536 74.3155C210.764 73.4586 209.841 72.7509 208.814 72.2277C207.694 71.6605 206.49 71.2793 205.248 71.0991V70.9863C207.178 70.4305 208.905 69.3249 210.22 67.8037C211.517 66.218 212.189 64.2105 212.11 62.1609C212.194 60.3229 211.745 58.4999 210.817 56.9132C209.969 55.6195 208.808 54.5631 207.442 53.8435C205.972 53.0821 204.381 52.5855 202.74 52.3764C201.018 52.1296 199.282 52.0052 197.543 52.0039H182.694V91.9549H199.005C200.79 91.9559 202.57 91.7667 204.315 91.3906C206.013 91.0493 207.642 90.4196 209.129 89.5285C210.537 88.6857 211.731 87.5268 212.616 86.1428C213.565 84.5498 214.034 82.7155 213.966 80.8611C213.968 79.638 213.759 78.4238 213.348 77.2723H213.314ZM191.468 59.4975H197.43C198.129 59.5003 198.825 59.5683 199.511 59.7007C200.177 59.8207 200.821 60.0374 201.424 60.344C201.98 60.6482 202.451 61.0864 202.796 61.6192C203.176 62.2347 203.364 62.9499 203.336 63.6732C203.352 64.3809 203.186 65.0808 202.852 65.7046C202.549 66.2525 202.116 66.7175 201.592 67.0589C201.047 67.4055 200.446 67.6538 199.815 67.7924C199.163 67.9467 198.494 68.0224 197.824 68.0182H191.468V59.4975ZM204.652 82.0687C204.314 82.6575 203.844 83.1596 203.28 83.5358C202.708 83.9217 202.066 84.1902 201.39 84.3258C200.718 84.4777 200.031 84.5534 199.343 84.5515H191.468V75.5231H198.105C198.858 75.5302 199.61 75.5868 200.355 75.6923C201.147 75.8014 201.921 76.01 202.661 76.3131C203.351 76.6028 203.958 77.0605 204.427 77.6448C204.917 78.2921 205.167 79.0899 205.136 79.9019C205.172 80.6547 205.005 81.4033 204.652 82.0687Z" fill="url(#paint0_linear_2_105)"/>
</g>
<defs>
<linearGradient id="paint0_linear_2_105" x1="0" y1="46" x2="214" y2="46" gradientUnits="userSpaceOnUse">
<stop stop-color="#90CEA1"/>
<stop offset="0.56" stop-color="#3CBEC9"/>
<stop offset="1" stop-color="#00B3E5"/>
</linearGradient>
<clipPath id="clip0_2_105">
<rect width="214" height="92" fill="white"/>
</clipPath>
</defs>
</svg>
