<svg width="336" height="24" viewBox="0 0 336 24" fill="none" xmlns="http://www.w3.org/2000/svg">
<g clip-path="url(#clip0_2_114)">
<path d="M201.652 0H207.767L213.779 15.7288H213.848L219.962 0H225.699L215.668 24H211.374L201.652 0ZM233.669 0H239.028V24H233.669V0ZM248.922 0H265.446V4.88136H254.281V9.35593H264.827V14.2373H254.281V19.1186H266.064V24H248.922V0ZM286.71 0H294.749C296.618 0.00325393 298.48 0.230915 300.293 0.677966C301.945 1.04827 303.505 1.73971 304.883 2.71186C306.207 3.69855 307.272 4.98423 307.989 6.46102C308.818 8.21445 309.225 10.1334 309.177 12.0678C309.212 13.8433 308.829 15.6025 308.057 17.2068C307.342 18.6495 306.317 19.9217 305.055 20.9356C303.756 21.9571 302.277 22.7318 300.692 23.2203C298.993 23.7522 297.219 24.0154 295.436 24H286.703L286.71 0ZM292.076 19.1186H294.824C295.98 19.127 297.133 19.0018 298.26 18.7458C299.252 18.5213 300.187 18.0991 301.008 17.5051C301.801 16.9128 302.432 16.1345 302.842 15.2407C303.324 14.1562 303.559 12.9804 303.53 11.7966C303.55 10.7358 303.314 9.68548 302.842 8.7322C302.419 7.88587 301.803 7.14789 301.042 6.57627C300.242 5.99186 299.338 5.55964 298.377 5.30169C297.331 5.01895 296.252 4.87754 295.168 4.88136H292.008L292.076 19.1186ZM316.9 0H325.969C327.033 0.00161252 328.096 0.0740936 329.15 0.216949C330.149 0.347895 331.118 0.645952 332.015 1.09831C332.854 1.5272 333.565 2.16529 334.076 2.94915C334.646 3.90115 334.921 4.99722 334.866 6.10169C334.917 7.33213 334.509 8.53825 333.719 9.49152C332.912 10.4047 331.855 11.0686 330.675 11.4034V11.4712C331.437 11.575 332.175 11.8041 332.86 12.1492C333.495 12.4614 334.065 12.8866 334.543 13.4034C335.018 13.9194 335.385 14.5231 335.622 15.1797C335.878 15.8748 336.006 16.6096 336 17.3492C336.041 18.4631 335.755 19.5651 335.176 20.522C334.635 21.3534 333.905 22.0497 333.046 22.5559C332.14 23.0923 331.148 23.4708 330.112 23.6746C329.043 23.8976 327.954 24.0112 326.862 24.0136H316.9V0ZM322.231 9.59322H326.113C326.525 9.59244 326.935 9.54697 327.336 9.45763C327.72 9.37548 328.085 9.22623 328.415 9.01695C328.738 8.81402 329.005 8.53432 329.191 8.20339C329.393 7.82799 329.492 7.40759 329.48 6.98305C329.499 6.54921 329.386 6.1196 329.157 5.74915C328.946 5.42709 328.655 5.16343 328.312 4.98305C327.946 4.79262 327.552 4.65994 327.144 4.58983C326.724 4.51542 326.299 4.47686 325.873 4.47458H322.231V9.59322ZM322.231 19.5254H327.041C327.463 19.5232 327.885 19.4777 328.298 19.3898C328.708 19.3052 329.097 19.1441 329.445 18.9153C329.791 18.6882 330.08 18.3869 330.291 18.0339C330.525 17.6209 330.637 17.1509 330.613 16.678C330.633 16.1911 330.483 15.7124 330.187 15.322C329.896 14.9776 329.524 14.7097 329.102 14.5424C328.663 14.3585 328.201 14.2331 327.728 14.1695C327.261 14.1041 326.791 14.0701 326.319 14.0678H322.231V19.5254ZM140.16 23.9525H186.193C187.787 23.9525 189.365 23.6429 190.837 23.0412C192.309 22.4395 193.646 21.5575 194.773 20.4458C195.9 19.334 196.793 18.0141 197.403 16.5615C198.013 15.1089 198.327 13.552 198.327 11.9797C198.327 8.80363 197.049 5.75758 194.773 3.51116C192.498 1.26473 189.412 0.00179741 186.193 0L140.202 0C136.983 0.00179741 133.897 1.26473 131.621 3.51116C129.346 5.75758 128.068 8.80363 128.068 11.9797C128.068 15.1551 129.346 18.2004 131.622 20.4458C133.897 22.6911 136.984 23.9525 140.202 23.9525H140.16ZM6.93931 4.67797H0V0H19.2377V4.67797H12.2984V24H6.93931V4.67797ZM26.7954 0H32.1544V8.94915H42.529V0H47.8881V24H42.529V13.6271H32.1201V24H26.7954V0ZM55.1022 0H71.5917V4.88136H60.4613V9.35593H71.0077V14.2373H60.4613V19.1186H72.2444V24H55.0679L55.1022 0ZM92.8906 0H100.998L106.597 15.661H106.666L112.3 0H120.373V24H115.014V5.59322H114.945L108.556 24H104.468L98.284 5.59322H98.2496V24H92.8906V0Z" fill="url(#paint0_linear_2_114)"/>
</g>
<defs>
<linearGradient id="paint0_linear_2_114" x1="0" y1="12" x2="336" y2="12" gradientUnits="userSpaceOnUse">
<stop stop-color="#90CEA1"/>
<stop offset="0.56" stop-color="#3CBEC9"/>
<stop offset="1" stop-color="#00B3E5"/>
</linearGradient>
<clipPath id="clip0_2_114">
<rect width="336" height="24" fill="white"/>
</clipPath>
</defs>
</svg>
